<svg xmlns="http://www.w3.org/2000/svg" width="395" height="96" viewBox="0 0 395 96"><path fill="#6a8366" d="M92.6 28A17.7 17.7 0 0 0 78.2 0H58.5L33.4 57 8.2 0H0v84h5.7V8l24.6 55.7h6.2L61.1 8v76h5.7V25h1.6a32.5 32.5 0 1 1-30.3 44.7h-6a38.3 38.3 0 1 0 60.5-41.6ZM88 25a38 38 0 0 0-19.6-5.4h-1.7v-14h11.5A12 12 0 0 1 88 25Zm58.5 15.2-9.3-15.7h-2.6v22.4h3V30.7l8.1 13.5h1.5l8-13.6v16.3h3.1V24.5h-2.6l-9.2 15.7zm24.2-10.4a13 13 0 0 0-3.8.6 8.9 8.9 0 0 0-3.2 1.6l1.3 2.3a7.5 7.5 0 0 1 2.4-1.3 9 9 0 0 1 3-.5 4.8 4.8 0 0 1 3.4 1 3.9 3.9 0 0 1 1.2 3v.7h-5a10 10 0 0 0-4 .6 4.7 4.7 0 0 0-2.2 1.8 5 5 0 0 0-.6 2.5 4.5 4.5 0 0 0 .8 2.6 5 5 0 0 0 2.1 1.8 8.1 8.1 0 0 0 3.4.6 8 8 0 0 0 3.8-.9 4.9 4.9 0 0 0 1.7-1.5v2.2h2.9V36.7c0-2.4-.6-4-1.9-5.2a7.8 7.8 0 0 0-5.4-1.7Zm2.4 14.1a5.7 5.7 0 0 1-3 .8 4.5 4.5 0 0 1-2.8-.8 2.4 2.4 0 0 1-1-2 2.5 2.5 0 0 1 .8-1.8 4.5 4.5 0 0 1 3.1-.8h4.8v2.4a4.3 4.3 0 0 1-2 2.2ZM243 29.8a12.7 12.7 0 0 0-4 .6 8.8 8.8 0 0 0-3 1.6l1.3 2.3a7.5 7.5 0 0 1 2.4-1.3 8.8 8.8 0 0 1 2.9-.5 4.7 4.7 0 0 1 3.4 1 3.9 3.9 0 0 1 1.1 3v.6h-4.8a10 10 0 0 0-4 .7 4.8 4.8 0 0 0-2.2 1.8 5 5 0 0 0-.6 2.5 4.5 4.5 0 0 0 .8 2.6 5 5 0 0 0 2.1 1.7 8.3 8.3 0 0 0 3.3.7 7.9 7.9 0 0 0 3.9-.9 4.8 4.8 0 0 0 1.7-1.6v2.3h2.9V36.7a6.6 6.6 0 0 0-1.9-5.2 7.8 7.8 0 0 0-5.4-1.7Zm2.2 14.1a5.7 5.7 0 0 1-3 .8 4.5 4.5 0 0 1-2.7-.7l-.3-.3a2.5 2.5 0 0 1 0-3.6 4.5 4.5 0 0 1 3.2-.8h4.7V42v-.2a4.4 4.4 0 0 1-1.9 2.2Zm-41.8-.4-6-13.6h-3.1l7.4 17-.5 1.1a5.2 5.2 0 0 1-1.4 2 3 3 0 0 1-1.8.6 4.3 4.3 0 0 1-1.7-.3 5 5 0 0 1-1.4-1l-1.3 2.3a5.2 5.2 0 0 0 2 1.2 6.8 6.8 0 0 0 2.4.4 6.1 6.1 0 0 0 2.4-.5 5 5 0 0 0 2-1.4 9.8 9.8 0 0 0 1.6-2.8l8.2-18.6h-3Zm24.3-12.9a8 8 0 0 0-3.6-.8 8.3 8.3 0 0 0-4 .9 6 6 0 0 0-2.1 1.8v-2.6h-3v17h3.1v-8.7a6.6 6.6 0 0 1 .7-3.1 4.5 4.5 0 0 1 1.8-2 6 6 0 0 1 2.9-.6 4.4 4.4 0 0 1 3.3 1.3 5.1 5.1 0 0 1 1.2 3.7v9.4h3V37a8.5 8.5 0 0 0-.8-4 5.7 5.7 0 0 0-2.5-2.5Zm-3.7-.8Zm-37.4 3v-2.9h-3v17h3v-8.4a5.8 5.8 0 0 1 1.5-4.3 5.2 5.2 0 0 1 4-1.5h.6v-3a8.2 8.2 0 0 0-4 1 5 5 0 0 0-2 2.1Zm183.7 10.7-5.8-13.6h-3.2l7.4 17h3.1l7.4-17h-3l-5.9 13.6zm-14-12.5a8.5 8.5 0 0 0-4.4-1.2 8.6 8.6 0 0 0-4.3 1.1 8 8 0 0 0-3 3 9 9 0 0 0-1.1 4.5 8.9 8.9 0 0 0 1 4.5 8.3 8.3 0 0 0 3.3 3.1 10.3 10.3 0 0 0 8.5.4 7.3 7.3 0 0 0 2.9-2l-1.7-2a5.9 5.9 0 0 1-2.2 1.5 6.8 6.8 0 0 1-2.7.5 6.7 6.7 0 0 1-3.2-.7 5.5 5.5 0 0 1-2.2-2 6 6 0 0 1-.8-2.2h14a2 2 0 0 0 0-.4 3.2 3.2 0 0 0 0-.5 9.1 9.1 0 0 0-1.2-4.6 7.5 7.5 0 0 0-2.9-3Zm-7.2 2a5.5 5.5 0 0 1 2.8-.7 5.4 5.4 0 0 1 2.9.8 5 5 0 0 1 2 2 5.8 5.8 0 0 1 .6 2.1h-11a5.8 5.8 0 0 1 .7-2.1 4.8 4.8 0 0 1 2-2Zm-17-3.2a12.9 12.9 0 0 0-3.8.6A8.9 8.9 0 0 0 325 32l1.3 2.3a7.5 7.5 0 0 1 2.4-1.3 9 9 0 0 1 3-.5 4.7 4.7 0 0 1 3.4 1 3.9 3.9 0 0 1 1.1 3v.7h-4.9a10 10 0 0 0-4 .6 4.7 4.7 0 0 0-2.1 1.8 5.2 5.2 0 0 0-.7 2.5 4.6 4.6 0 0 0 .8 2.6 5 5 0 0 0 2.2 1.8 8.2 8.2 0 0 0 3.3.6 8 8 0 0 0 3.8-.9 4.9 4.9 0 0 0 1.7-1.6V47h3V36.7a6.6 6.6 0 0 0-2-5.2 7.8 7.8 0 0 0-5.3-1.7Zm2.3 14.1a5.7 5.7 0 0 1-3 .8 4.5 4.5 0 0 1-2.8-.8 2.4 2.4 0 0 1-1-2 2.5 2.5 0 0 1 .8-1.8 4.6 4.6 0 0 1 3.1-.8h4.8v2.5-.1a4.3 4.3 0 0 1-2 2.2ZM393 31.5a7.8 7.8 0 0 0-5.3-1.7 13 13 0 0 0-3.8.6 8.8 8.8 0 0 0-3.2 1.6l1.3 2.3a7.6 7.6 0 0 1 2.4-1.3 8.8 8.8 0 0 1 3-.5 4.7 4.7 0 0 1 3.4 1 3.9 3.9 0 0 1 1.1 3v.7H387a10 10 0 0 0-4 .6 4.7 4.7 0 0 0-2.1 1.8 5 5 0 0 0-.7 2.5 4.5 4.5 0 0 0 .8 2.6 5 5 0 0 0 2.2 1.8 8.2 8.2 0 0 0 3.3.6 8 8 0 0 0 3.8-.9 4.9 4.9 0 0 0 1.7-1.6V47h3V36.7a6.6 6.6 0 0 0-2-5.2ZM390 44a5.7 5.7 0 0 1-3 .8 4.5 4.5 0 0 1-2.7-.8 2.4 2.4 0 0 1-1-2 2.5 2.5 0 0 1 .8-1.8 4.5 4.5 0 0 1 3-.8h4.8v2.5-.1A4.3 4.3 0 0 1 390 44Zm-81.9-20.8h3.1v23.7h-3.1zm-27.2 12.4a8.7 8.7 0 0 0-1-.3 5.2 5.2 0 0 0 2.1-2 5.4 5.4 0 0 0 .9-3 5 5 0 0 0-2.1-4.2 9.7 9.7 0 0 0-6-1.6h-10V47h10.7c2.8 0 5-.5 6.3-1.6a5.2 5.2 0 0 0 2.2-4.5 5.6 5.6 0 0 0-.9-3.2 5.5 5.5 0 0 0-2.2-2Zm-6.3-8.5a6.6 6.6 0 0 1 3.8 1 3 3 0 0 1 1.3 2.6 3 3 0 0 1-1.3 2.7 6.7 6.7 0 0 1-3.8.9h-6.5V27Zm4.8 16.3a7.4 7.4 0 0 1-4 .9h-7.3v-7.4h7.3a7.6 7.6 0 0 1 4 .9 3 3 0 0 1 1.5 2.8 3 3 0 0 1-1.4 2.8ZM299.8 31a9.2 9.2 0 0 0-8.7 0 8 8 0 0 0-3 3 9 9 0 0 0-1.1 4.4 8.9 8.9 0 0 0 1.1 4.5 8.2 8.2 0 0 0 3.2 3.1 10.1 10.1 0 0 0 4.8 1.1 10 10 0 0 0 3.8-.7 7.3 7.3 0 0 0 2.9-2l-1.7-2a6 6 0 0 1-2.2 1.5 7.5 7.5 0 0 1-6-.2 5.6 5.6 0 0 1-2.1-2 6.1 6.1 0 0 1-.7-2.2h13.7a3.8 3.8 0 0 0 0-.4 3.2 3.2 0 0 0 0-.5 9.2 9.2 0 0 0-1-4.6 7.5 7.5 0 0 0-3-3Zm-7.1 2a5.5 5.5 0 0 1 2.8-.7 5.4 5.4 0 0 1 2.9.8 5 5 0 0 1 2 2 5.7 5.7 0 0 1 .6 2.1h-11a6 6 0 0 1 .7-2.1 5 5 0 0 1 2-2Zm25.8-10.3a2.1 2.1 0 0 0-1.5.6 2 2 0 0 0-.6 1.4 2 2 0 0 0 .6 1.4 2.1 2.1 0 0 0 1.5.6h.1a2 2 0 0 0 2-2 1.8 1.8 0 0 0-.6-1.4 2 2 0 0 0-1.5-.6Zm-1.5 7.2h3.1v17H317zM368.7 67v1.6h3.2v8.2h1.9v-8.2h3.2V67h-8.3zm-182.1 5.5a3.1 3.1 0 0 1-.6 2.2 2.3 2.3 0 0 1-1.9.6 2.4 2.4 0 0 1-1.8-.6 3.2 3.2 0 0 1-.7-2.2V67h-1.8v5.5a4.4 4.4 0 0 0 1.2 3.3 4.9 4.9 0 0 0 6.3 0 4.4 4.4 0 0 0 1.1-3.3V67h-1.8Zm7.5-5.5h-1.8v9.8h7v-1.5h-5.2V67zm5.8 1.6h3.3v8.2h1.8v-8.2h3.2V67h-8.3v1.6zm13.6-1.6-4.4 9.8h1.9l1-2.3h4.9l1 2.3h1.9l-4.5-9.8Zm-1 6 1.9-4.2 1.8 4.3Zm16.7.7-5.4-6.7h-1.5v9.8h1.8v-6.6l5.4 6.6h1.5V67h-1.8v6.7zm4.6-5.1h3.2v8.2h1.8v-8.2h3.3V67h-8.3v1.6zm-98 .2a3.5 3.5 0 0 1 1.3-.2 3.4 3.4 0 0 1 1.5.3 3.6 3.6 0 0 1 1.2.8l1.1-1a4.2 4.2 0 0 0-1.6-1.3 5.9 5.9 0 0 0-4.3 0 5 5 0 0 0-1.7 1 4.8 4.8 0 0 0-1 1.6 5.4 5.4 0 0 0 0 4 4.8 4.8 0 0 0 1 1.6 5.5 5.5 0 0 0 1.7 1 6 6 0 0 0 2 .4 5.9 5.9 0 0 0 2.3-.3 4.5 4.5 0 0 0 1.6-1.3l-1.1-1a3.5 3.5 0 0 1-1.2.8 3.5 3.5 0 0 1-1.5.3 3.7 3.7 0 0 1-1.4-.3 3.2 3.2 0 0 1-1.8-1.8 4 4 0 0 1 0-2.7 3.2 3.2 0 0 1 1.8-1.9Zm16.4-.5a4.8 4.8 0 0 0-1.6-1 5.6 5.6 0 0 0-2.1-.4 6 6 0 0 0-2.1.4 5 5 0 0 0-1.7 1 5 5 0 0 0-1.5 3.6 4.9 4.9 0 0 0 1.5 3.6 5.3 5.3 0 0 0 1.6 1 6 6 0 0 0 2.1.4 5.7 5.7 0 0 0 2.1-.4 5 5 0 0 0 1.7-1 4.7 4.7 0 0 0 1-1.6 5.2 5.2 0 0 0 .5-2 5 5 0 0 0-.4-2 4.6 4.6 0 0 0-1.1-1.6Zm-.6 5a3.4 3.4 0 0 1-.7 1.1 3.3 3.3 0 0 1-1 .7 3.6 3.6 0 0 1-1.5.3 3.6 3.6 0 0 1-1.3-.3 3.2 3.2 0 0 1-1-.7 3.4 3.4 0 0 1-1-2.5 3.6 3.6 0 0 1 .2-1.3 3.4 3.4 0 0 1 .7-1.1 3 3 0 0 1 1.1-.8 3.9 3.9 0 0 1 2.7 0 3.1 3.1 0 0 1 1.1.8 3.4 3.4 0 0 1 .7 1 3.2 3.2 0 0 1 .3 1.4 3.4 3.4 0 0 1-.3 1.4Zm32.5 3.6zm-8.5-4.9a4.5 4.5 0 0 0-1.2-.5 25 25 0 0 0-2.3-.6 2.3 2.3 0 0 1-.9-.4 1 1 0 0 1-.3-.8 1.1 1.1 0 0 1 .2-.6 1.5 1.5 0 0 1 .7-.5 3.7 3.7 0 0 1 1.2-.2 4.6 4.6 0 0 1 1.4.2 4.8 4.8 0 0 1 1.3.6l.6-1.4a5 5 0 0 0-1.5-.7 6.8 6.8 0 0 0-1.7-.2 5.4 5.4 0 0 0-2.3.4 3 3 0 0 0-1.3 1 2.6 2.6 0 0 0-.4 1.5 2.2 2.2 0 0 0 .3 1.3 2.5 2.5 0 0 0 .9.8 7.1 7.1 0 0 0 1 .5l1.3.3a9.7 9.7 0 0 1 1.2.3 2 2 0 0 1 .8.5.9.9 0 0 1 .3.7 1 1 0 0 1-.2.6 1.5 1.5 0 0 1-.7.5 4 4 0 0 1-1.2.1 5.1 5.1 0 0 1-1.8-.3 4.9 4.9 0 0 1-1.5-.7l-.6 1.4a5 5 0 0 0 1.7.8 7.8 7.8 0 0 0 2.2.4 5.5 5.5 0 0 0 2.2-.4 3 3 0 0 0 1.3-1 2.6 2.6 0 0 0 .4-1.5 2.5 2.5 0 0 0-.3-1.3 2.3 2.3 0 0 0-.8-.8Zm-11.7 1.6-5.4-6.6H157v9.8h1.8v-6.6l5.4 6.6h1.5V67h-1.8v6.6zM286.3 77Zm28.1-8.7a4.8 4.8 0 0 0-1.7-1 5.6 5.6 0 0 0-2.1-.4 6 6 0 0 0-2.1.4 5 5 0 0 0-1.7 1 4.7 4.7 0 0 0-1 1.6 4.9 4.9 0 0 0-.5 2 5 5 0 0 0 .4 2 4.8 4.8 0 0 0 1.1 1.6 5.3 5.3 0 0 0 1.7 1 6 6 0 0 0 2.1.4 5.9 5.9 0 0 0 2-.4 5 5 0 0 0 1.7-1 4.6 4.6 0 0 0 1.2-1.6 5.2 5.2 0 0 0 .4-2 5 5 0 0 0-.4-2 4.6 4.6 0 0 0-1.1-1.6Zm-.6 5a3.4 3.4 0 0 1-.7 1.1 3.3 3.3 0 0 1-1.1.7 3.6 3.6 0 0 1-1.4.3 3.5 3.5 0 0 1-1.3-.3 3.2 3.2 0 0 1-1.1-.7 3.4 3.4 0 0 1-1-2.5 3.6 3.6 0 0 1 .2-1.3 3.4 3.4 0 0 1 1.9-1.8 3.5 3.5 0 0 1 1.3-.3 3.6 3.6 0 0 1 1.4.3 3.1 3.1 0 0 1 1 .7 2.9 2.9 0 0 1 .8 1 3.2 3.2 0 0 1 .3 1.4 3.4 3.4 0 0 1-.3 1.4Zm40.3-6.3h1.8v9.8h-1.8zM321 67h-1.8v9.8h6.9v-1.5H321V67zm23 2.5a3.1 3.1 0 0 1 1.1-.7 3.9 3.9 0 0 1 1.5-.3 3.6 3.6 0 0 1 1.4.3 3.4 3.4 0 0 1 1.2.9l1.2-1.2a4.4 4.4 0 0 0-1.7-1.2 6 6 0 0 0-2.2-.4 5.8 5.8 0 0 0-2.1.4 5 5 0 0 0-1.7 1 4.7 4.7 0 0 0-1 1.7 5.4 5.4 0 0 0 0 4 4.7 4.7 0 0 0 1 1.6 5.4 5.4 0 0 0 1.7 1 6.3 6.3 0 0 0 2 .4 6.9 6.9 0 0 0 2-.3 5.5 5.5 0 0 0 1.9-1v-3.9h-1.7v3a3.7 3.7 0 0 1-.6.3 4.4 4.4 0 0 1-1.4.2 3.8 3.8 0 0 1-1.5-.2 3.3 3.3 0 0 1-1-.7 3.5 3.5 0 0 1-.8-1.1 3.8 3.8 0 0 1-.3-1.3 3.7 3.7 0 0 1 .3-1.4 3.1 3.1 0 0 1 .7-1.1Zm-7-1.2a5 5 0 0 0-1.6-1 5.6 5.6 0 0 0-2-.4 6 6 0 0 0-2.2.4 5 5 0 0 0-1.7 1 5 5 0 0 0-1 1.6 5 5 0 0 0 1 5.6 5.3 5.3 0 0 0 1.7 1 6 6 0 0 0 2.1.4 5.9 5.9 0 0 0 2.1-.4 5.2 5.2 0 0 0 1.7-1 4.6 4.6 0 0 0 1-1.6 5.2 5.2 0 0 0 .5-2 5 5 0 0 0-.4-2 4.6 4.6 0 0 0-1.1-1.6Zm-.5 5a3.4 3.4 0 0 1-.7 1.1 3.2 3.2 0 0 1-1.1.7 3.6 3.6 0 0 1-1.4.3 3.5 3.5 0 0 1-1.3-.3 3.2 3.2 0 0 1-1-.7 3.4 3.4 0 0 1-1-2.5 3.6 3.6 0 0 1 .2-1.3 3.3 3.3 0 0 1 1.8-1.9 3.9 3.9 0 0 1 2.7 0 3 3 0 0 1 1.1.8 3 3 0 0 1 .7 1 3.2 3.2 0 0 1 .3 1.4 3.4 3.4 0 0 1-.3 1.4Zm-36.3-2.2h-5.1V67h-1.8v9.8h1.8v-4.2h5.1v4.2h1.8V67h-1.8v4.1zM277.8 67l-2.8 4.8-2.9-4.7h-2l3.9 6.3v3.4h1.8v-3.5l3.8-6.3h-1.8zm6.1 2.5a3.3 3.3 0 0 1 1-.7 3.8 3.8 0 0 1 1.5-.3 3.3 3.3 0 0 1 1.4.3 3.6 3.6 0 0 1 1.2 1l1.2-1.1a4.4 4.4 0 0 0-1.7-1.3 5.7 5.7 0 0 0-2.2-.4 5.7 5.7 0 0 0-2 .4 4.8 4.8 0 0 0-1.7 1 4.5 4.5 0 0 0-1.1 1.6 5.4 5.4 0 0 0 0 4 5 5 0 0 0 1 1.6 5.6 5.6 0 0 0 1.7 1 6.1 6.1 0 0 0 2.1.4 5.8 5.8 0 0 0 2.2-.4 4.5 4.5 0 0 0 1.7-1.2l-1.2-1.2a3.3 3.3 0 0 1-1.2 1 3.5 3.5 0 0 1-1.4.2 3.8 3.8 0 0 1-1.4-.3 3.3 3.3 0 0 1-1.1-.7 3.6 3.6 0 0 1-.8-1 4 4 0 0 1 0-2.8 3.6 3.6 0 0 1 .8-1.1Zm-27.6-2.1a5.4 5.4 0 0 0-2.2-.4h-4v9.8h1.8V74h2.2a5.4 5.4 0 0 0 2.2-.4 3.3 3.3 0 0 0 1.4-1.2 3.3 3.3 0 0 0-1.4-5Zm-.5 4.5a2.8 2.8 0 0 1-1.8.5h-2v-3.8h2a2.8 2.8 0 0 1 1.8.5 1.8 1.8 0 0 1 .6 1.4 1.8 1.8 0 0 1-.6 1.4Zm11.6.1a4.9 4.9 0 0 0-1-.5l-1.3-.3-1.2-.3a2.1 2.1 0 0 1-.8-.4 1 1 0 0 1-.3-.8 1.1 1.1 0 0 1 .2-.6 1.6 1.6 0 0 1 .7-.5 3.7 3.7 0 0 1 1.2-.2 4.6 4.6 0 0 1 1.4.2 5 5 0 0 1 1.3.6l.6-1.4a4.9 4.9 0 0 0-1.5-.7 6.9 6.9 0 0 0-1.8-.2 5.4 5.4 0 0 0-2.2.4 3 3 0 0 0-1.3 1 2.7 2.7 0 0 0-.4 1.5 2.4 2.4 0 0 0 .3 1.3 2.7 2.7 0 0 0 .8.8 6.7 6.7 0 0 0 1.2.5l1.2.3a7.3 7.3 0 0 1 1.1.3 2 2 0 0 1 .9.5.9.9 0 0 1 .3.7 1 1 0 0 1-.2.6 1.5 1.5 0 0 1-.7.5 4 4 0 0 1-1.3.1 5.5 5.5 0 0 1-3.2-1l-.6 1.4a5 5 0 0 0 1.7.8 7.7 7.7 0 0 0 2.1.4 5.7 5.7 0 0 0 2.2-.4 2.9 2.9 0 0 0 1.3-1 2.6 2.6 0 0 0 .5-1.5 2.3 2.3 0 0 0-.3-1.3 2.2 2.2 0 0 0-.9-.8Zm-2.8 5Zm101.2-5a4.8 4.8 0 0 0-1.2-.5 25 25 0 0 0-2.3-.6 2.1 2.1 0 0 1-.9-.4 1 1 0 0 1-.3-.8 1.1 1.1 0 0 1 .2-.6 1.5 1.5 0 0 1 .7-.5 3.6 3.6 0 0 1 1.2-.2 4.7 4.7 0 0 1 1.4.2 5.2 5.2 0 0 1 1.3.6l.6-1.4a5.4 5.4 0 0 0-1.5-.7 7.4 7.4 0 0 0-1.7-.2 5.4 5.4 0 0 0-2.3.4 3 3 0 0 0-1.3 1 2.7 2.7 0 0 0-.4 1.5 2.3 2.3 0 0 0 .3 1.3 2.4 2.4 0 0 0 .9.8 6.7 6.7 0 0 0 1.1.5l1.2.3a8.6 8.6 0 0 1 1.2.3 2.1 2.1 0 0 1 .8.4.9.9 0 0 1 .4.7 1 1 0 0 1-.3.7 1.5 1.5 0 0 1-.7.4 4 4 0 0 1-1.2.2 5.1 5.1 0 0 1-1.8-.3 5 5 0 0 1-1.4-.8l-.7 1.4a5 5 0 0 0 1.7.9 7.7 7.7 0 0 0 2.2.3 5.7 5.7 0 0 0 2.2-.3 3 3 0 0 0 1.3-1 2.5 2.5 0 0 0 .5-1.5 2.3 2.3 0 0 0-.4-1.3 2.2 2.2 0 0 0-.8-.8Zm-19.3 4.9z"/></svg>