<svg xmlns="http://www.w3.org/2000/svg" width="276" height="254" fill="none" viewBox="0 0 276 254"><path fill="#5C7957" d="M79.4 46.5C68.2 57.8 65 77 72.8 94.5c7.8 17.4 24.2 27.9 40.1 27 11.2-11.3 14.4-30.4 6.6-48-7.8-17.4-24.2-27.8-40.1-27Z"/><path fill="#4D574D" d="m114.5 122.4-.5-1.3-.6-1.3-1.1-2.4-1.6-3.5 3.4-7.4 1.9-4.2 1.7-4.3-2.1 4-2.1 4.2-3.3 6.7-.2-.4-6.2-13.5 3-4.8 3.2-5.5 3.2-5.5 3.1-5.6-3.5 5.3-3.4 5.4-3.4 5.5-2.6 4.3L101 93l-4-8.7 2.1-4.7 2.3-5.2 2.3-5.2L106 64l-2.6 5-2.5 5.1-2.4 5.1-1.9 4L90.3 70c1-2.5 1.8-5 2.6-7.6l1.3-3.9 1.1-3.9-1.5 3.8-1.5 3.8-2.5 6.7-6.9-15-.3.2L89 69a233.1 233.1 0 0 0-13-5.8 184 184 0 0 0 13.6 7l5.8 13.5-4.2-1.3-5.4-1.6-10.7-3.1 10.5 3.7 5.3 1.7 5 1.6 3.7 8.8 2.2 5.1-10.4-2.3L79.5 94l11.7 3 11 2.6 6 13.7.1.4a339 339 0 0 0-16-4.4 274.9 274.9 0 0 0 16.5 5.4l1.5 3.5 1 2.5.6 1.2.4 1.2a17.2 17.2 0 0 1 .7 9.7l2.4.9c.7-2 .7-4 .5-6a25 25 0 0 0-1.4-5.4Z"/><path fill="#C6DEC2" d="M161.8 62c-16.6-1.8-34.5 8.2-43.7 26-9.3 17.9-7.1 38.2 4 50.8 16.6 1.7 34.4-8.2 43.7-26 9.2-17.9 7-38.2-4-50.8Z"/><path fill="#5C7957" d="m142.2 101.2 5.3-1.3 5.8-1.5L159 97l5.7-1.6-5.8 1.2-5.8 1.3-5.8 1.3-4.6 1 7-13.7 7.9-2.8 4-1.5 4-1.6-4.2 1.2-4 1.2-7.2 2.4 7.8-15.5-.4-.2-8 15.2a265 265 0 0 0-3.9-14.6l1.5 8c.5 2.6 1 5.2 1.7 7.8l-7.3 13.6-1.7-4.3-2.1-5.5-4.6-10.8a393 393 0 0 0 4 11c.6 2 1.3 3.7 2 5.6l1.9 5-4.8 8.9-2.8 5.2c-1.6-3.4-3.2-6.8-5-10.1-1.8-3.8-3.7-7.6-5.7-11.3 1.6 3.8 3.4 7.7 5.2 11.5l5 10.9-7.4 13.7-.2.4a325.6 325.6 0 0 0-6.9-16 259.5 259.5 0 0 0 6.4 17l-2 3.6-1.3 2.5-.6 1.3a23.2 23.2 0 0 1-4 5.3 10.7 10.7 0 0 1-4.2 2.7l.8 2.6c2-.8 3.8-2 5.2-3.5 1.4-1.4 2.6-3 3.6-4.7l.7-1.3.6-1.3 1.3-2.5 1.8-3.6 8.4-2 4.7-1.3 4.6-1.3-4.7.9-4.8 1-7.6 1.6.2-.4 7-14 5.9-.7 6.6-.9 6.7-1 6.6-1-6.7.6-6.7.7-6.6.8-5.4.6 2.7-5.3 4.5-9Z"/><path fill="#C6DEC2" d="M204 28a17.1 17.1 0 0 0-3.6-18.7c-5.2-5.5-12.6-7.3-18.4-5-2.8 5.6-1.5 13.1 3.6 18.7 5.1 5.5 12.6 7.3 18.4 5Z"/><path fill="#5C7957" d="m192.6 16.1-.2 2-.2 2.3-.2 2.2-.1 2.2.3-2.2.3-2.2.2-2.2.2-1.8 4 4.2v4.8l.1 1.6.1-1.6v-1.6l.2-2.8 4.4 4.7.1-.1-4.3-4.8c.9 0 1.7.2 2.6.3l3 .2-3-.5-3-.4-3.8-4.3h1.7l2.2-.1 4.4-.2a139.7 139.7 0 0 0-6.6 0h-2l-2.5-2.8-1.5-1.6 4.2-.5 4.7-.6c-1.6 0-3.1.2-4.7.3l-4.5.4-4-4.3v-.1a162.4 162.4 0 0 0 6.5-.4h-6.8l-1-1-.7-.9-.4-.4-.3-.3c-.4-.6-.8-1.1-1-1.7a4 4 0 0 1-.5-1.9h-1c0 .8.3 1.6.6 2.3a9.8 9.8 0 0 0 1.5 2.3l.4.3.7.8 1 1.1-.3 3.2-.1 1.8-.1 1.8.3-1.8.2-1.7.4-3 .1.2 4 4.2-.4 2.2-.6 2.4-.5 2.5-.4 2.5.6-2.5.6-2.4.6-2.5.4-2 1.5 1.7 2.6 2.7Z"/><path fill="#C6DEC2" d="M4 184.7a17 17 0 0 0-1.2 19c3.6 6.6 10.3 10.3 16.5 9.5a17 17 0 0 0 1.2-19c-3.5-6.6-10.3-10.3-16.5-9.5Z"/><path fill="#5C7957" d="m12 199 .7-1.9.8-2 .7-2.2.7-2-.8 2-.9 2-.8 2.1-.6 1.6-2.8-5 .8-3 .4-1.6.3-1.6-.5 1.5-.5 1.6-.7 2.7-3.2-5.7h-.1l3 5.8-2.5-1-2.9-1a74.9 74.9 0 0 0 5.6 2.4l2.7 5.2-1.7-.4-2.2-.5-4.3-.9 4.3 1.2 2.1.5 2 .5 1.7 3.3 1 2-4.2-.6c-1.5-.3-3.1-.5-4.7-.6l4.7.8 4.4.7 2.7 5.2v.2l-2.8-.6-3.5-.7 3.5 1 3 .7.8 1.3.5 1 .2.4.2.5c.3.6.5 1.2.6 1.9a4 4 0 0 1 0 1.8l1 .3a5 5 0 0 0 0-2.3 10 10 0 0 0-1-2.6l-.2-.5-.6-.9-.7-1.3 1.1-3 .7-1.7.5-1.8-.7 1.7-.7 1.7-1.1 2.7v-.2l-3-5 1.1-2 1.1-2.3 1.1-2.3 1.1-2.3-1.2 2.2-1.2 2.3-1.2 2.2-1 1.8-1-2L12 199Zm256 9a17.1 17.1 0 0 0 7.2-17.7c-1.2-7.4-6.5-13-12.6-14.3-5.4 3.2-8.5 10.2-7.2 17.7 1.2 7.4 6.5 13 12.6 14.3Z"/><path fill="#4D574D" d="m265 191.8-1.3 1.6-1.4 1.7-1.3 1.8-1.4 1.7 1.5-1.6 1.5-1.7 1.4-1.7 1.1-1.4 1 5.7-1.7 2.6-.8 1.4-.9 1.4 1-1.3 1-1.3 1.5-2.3 1.2 6.4h.1l-1-6.4a94.2 94.2 0 0 0 4.5 3.5l-2.3-2.1-2.2-2-1-5.7 1.6 1 1.8 1 3.8 2.3-3.6-2.4-1.9-1.2-1.7-1-.6-3.8-.3-2.2 3.8 2 4.3 2-4.2-2.3-4-2.1-.9-5.8v-.2l2.5 1.5 3.2 1.8a94.5 94.5 0 0 0-5.8-3.7l-.2-1.5-.2-1v-3a4 4 0 0 1 .6-1.8l-.8-.6a5 5 0 0 0-.8 2.2 9.5 9.5 0 0 0 0 2.8l.2.5.2 1 .2 1.6-2 2.5-1.1 1.4-1.1 1.4 1.2-1.3 1.2-1.4 2-2.2v.1l1 5.8-1.6 1.6-1.8 1.7-1.7 1.8-1.8 1.8 1.9-1.7 1.8-1.7 1.8-1.7 1.5-1.4.4 2.2.7 3.7Z"/><path fill="#CCA497" d="M67.6 218.4s11.1-5.6 7.5-24.8c0 0-11.6 9.6-7.5 24.8Z"/><path fill="#E3CCC5" d="M115 253c53.7 0 97.3-7.7 97.3-17.3 0-9.5-43.6-17.3-97.3-17.3-53.7 0-97.2 7.8-97.2 17.3 0 9.6 43.5 17.3 97.2 17.3Z" opacity=".3" style="mix-blend-mode:multiply"/><path fill="#E6E6E6" d="M115 248.6c32.1 0 58.1-7.3 58.1-16.2 0-9-26-16.3-58-16.3-32.1 0-58.1 7.3-58.1 16.3s26 16.2 58 16.2Z"/><path fill="#fff" d="M115 243c45 0 81.4-8 81.4-17.7S160 207.7 115 207.7c-45 0-81.4 7.9-81.4 17.6 0 9.8 36.5 17.7 81.4 17.7Z"/><path fill="#F2F2F2" d="M115 240.7c42.8 0 77.5-7 77.5-15.7s-34.7-15.7-77.5-15.7c-42.7 0-77.4 7-77.4 15.7s34.7 15.7 77.4 15.7Z"/><path fill="#CCC" d="M115 234.5c26 0 47-4.3 47-9.5 0-5.3-21-9.5-47-9.5-25.9 0-46.9 4.2-46.9 9.5 0 5.2 21 9.5 47 9.5Z" opacity=".5" style="mix-blend-mode:multiply"/><path fill="#F2F2F2" d="M189.2 216.4c-4.8 0-9.7-2.3-12.6-6.3-3.6-5-3.9-12-.7-17.2 4.6-7.4 13.6-8.8 20.2-10 7.7-1.2 16.2-3.2 21.6-8.7a19.4 19.4 0 0 0 5-17.4c-1.4-6-6-11.4-11.9-13.6a19.4 19.4 0 0 0-17.9 2.4 4.9 4.9 0 1 1-5.7-7.9 29 29 0 0 1 27-3.6 29 29 0 0 1 18 20.6 29 29 0 0 1-7.5 26.3 47 47 0 0 1-27 11.6c-5.3.9-11.3 1.8-13.5 5.4a6 6 0 0 0 .3 6.3 6 6 0 0 0 6 2.2 6 6 0 0 0 4.1-4.7 4.9 4.9 0 1 1 9.7 1.3c-.8 6-5.5 11.4-11.5 12.9-1.2.3-2.4.4-3.6.4Z"/><path fill="#CCC" d="M176 192.9a15 15 0 0 0-2.3 9.2 89 89 0 0 0 9.1-15.4 17.2 17.2 0 0 0-6.9 6.2Zm11.2-55.2a4.9 4.9 0 0 0 5.8 8l1.2-.9c.5-4.3.8-8 1-11a24 24 0 0 0-8 4Z" opacity=".3" style="mix-blend-mode:multiply"/><path fill="#fff" d="M192.4 125.7H37.6S35 229.1 115 229.1s77.4-103.4 77.4-103.4Z"/><path fill="#CCC" d="M115 229.1a68 68 0 0 0 41.7-12.7c-10.4.7-21 1-31.3 0a98.6 98.6 0 0 1-44.7-14.2c-18-11.6-29.9-29.9-40.6-48.5 5.4 30.6 22.2 75.4 75 75.4Z" opacity=".3" style="mix-blend-mode:multiply"/><path fill="#F2F2F2" d="M115 138.5c42.8 0 77.5-5.7 77.5-12.8 0-7-34.7-12.8-77.5-12.8-42.7 0-77.4 5.7-77.4 12.8 0 7 34.7 12.8 77.4 12.8Z"/><path fill="#E6E6E6" d="M115 136c41 0 74-4.9 74-10.9s-33-10.8-74-10.8c-40.8 0-74 4.9-74 10.8 0 6 33.2 10.8 74 10.8Z"/><path fill="#5C7957" d="M49.1 130c12.3 3.6 37.2 6 66 6 28.6 0 53.5-2.4 65.8-6a293.3 293.3 0 0 0-65.9-5.8c-28.7 0-53.6 2.4-65.9 5.9Z"/><path fill="#C6DEC2" d="M58.4 132.1c13.6 2.4 34 3.8 56.6 3.8 22.7 0 43-1.4 56.6-3.8a357.3 357.3 0 0 0-56.6-3.8c-22.7 0-43 1.4-56.6 3.8Z"/><path fill="#CCC" d="m88.4 172.1-11.3-6c-2.9-21-2.8-31.8-2.8-32 0-.1-.1-.3-.3-.3l-.3.3c0 .1 0 11 2.9 32.1l-9.4 8.7 3.7 27.8 21.2-2.8-3.7-27.8Z" style="mix-blend-mode:multiply"/><path stroke="#4D574D" stroke-linecap="round" stroke-miterlimit="10" d="M74 134.1s0 12 3.9 36"/></svg>