<svg xmlns="http://www.w3.org/2000/svg" xmlns:xlink="http://www.w3.org/1999/xlink" style="display:none"><defs><clipPath id="a"><path fill="none" d="M0 0h24v24H0z"/></clipPath></defs><symbol id="arrow-left"><path d="M10.83 19a1 1 0 01-.71-.3l-5.83-6a1 1 0 01-.19-.26v-.07A1 1 0 014 12a1 1 0 01.07-.34v-.07a1.15 1.15 0 01.19-.26l5.83-6a1 1 0 111.43 1.4L7.37 11H19a1 1 0 010 2H7.37l4.18 4.3a1 1 0 01-.72 1.7z"/></symbol><symbol id="arrow-right"><path d="M13.17 19a1 1 0 01-.72-1.7l4.18-4.3H5a1 1 0 010-2h11.63l-4.18-4.3a1 1 0 111.43-1.4l5.83 6a.83.83 0 01.19.27 1.07 1.07 0 010 .76.83.83 0 01-.19.27l-5.83 6a1 1 0 01-.71.4z"/></symbol><symbol id="calendar-plus"><path d="M17.62 22.84H6.38A4.38 4.38 0 012 18.47V7.22A4.38 4.38 0 015.16 3v-.84a1 1 0 112 0v.68h9.46v-.68a1 1 0 012 0V3A4.37 4.37 0 0122 7.22v11.25a4.38 4.38 0 01-4.38 4.37zM4 9.62v8.85a2.38 2.38 0 002.38 2.37h11.24A2.38 2.38 0 0020 18.47V9.62H4zm.12-2H20v-.4a2.39 2.39 0 00-2.38-2.38H6.38A2.39 2.39 0 004 7.22v.41zM15 18.66a1 1 0 01-.64-.24l-2.36-2-2.36 2a1 1 0 01-1.41-.12 1 1 0 01.13-1.41l2.08-1.73-2.08-1.74a1 1 0 111.28-1.53l2.36 2 2.36-2a1 1 0 111.28 1.53l-2.08 1.74 2.08 1.73a1 1 0 01.13 1.41 1 1 0 01-.77.36z"/></symbol><symbol id="calendar"><path d="M17.62 22.84H6.38A4.38 4.38 0 012 18.47V7.22A4.38 4.38 0 015.16 3v-.84a1 1 0 112 0v.68h9.46v-.68a1 1 0 012 0V3A4.37 4.37 0 0122 7.22v11.25a4.38 4.38 0 01-4.38 4.37zM4 9.62v8.85a2.38 2.38 0 002.38 2.37h11.24A2.38 2.38 0 0020 18.47V9.62H4zm.12-2H20v-.4a2.39 2.39 0 00-2.38-2.38H6.38A2.39 2.39 0 004 7.22v.41zm8.44 11.05a1 1 0 01-1-1v-.09a1 1 0 012 0 1 1 0 01-1 1.09zm-5.06 0a1 1 0 01-1-1v-.09a1 1 0 012 0 1 1 0 01-1 1.09zm9.56-4.59a1 1 0 01-1-1V13a1 1 0 012 0 1 1 0 01-1 1.08zm-4.5 0a1 1 0 01-1-1V13a1 1 0 012 0 1 1 0 01-1 1.08z"/></symbol><symbol id="chevron-down"><path d="M12 15.4a1 1 0 01-.71-.29l-4.8-4.8a1 1 0 011.42-1.42L12 13l4.09-4.1a1 1 0 011.42 1.42l-4.8 4.8a1 1 0 01-.71.28z"/></symbol><symbol id="chevron-left"><path d="M14.4 17.8a1 1 0 01-.71-.29l-4.8-4.8a1 1 0 010-1.42l4.8-4.8a1 1 0 011.42 1.42L11 12l4.1 4.09a1 1 0 010 1.42 1 1 0 01-.7.29z"/></symbol><symbol id="chevron-right"><path d="M9.6 17.8a1 1 0 01-.71-.29 1 1 0 010-1.42L13 12 8.89 7.91a1 1 0 011.42-1.42l4.8 4.8a1 1 0 010 1.42l-4.8 4.8a1 1 0 01-.71.29z"/></symbol><symbol id="chevron-up"><path d="M16.8 15.4a1 1 0 01-.71-.29L12 11l-4.09 4.1a1 1 0 01-1.42-1.42l4.8-4.8a1 1 0 011.42 0l4.8 4.8a1 1 0 010 1.42 1 1 0 01-.71.3z"/></symbol><symbol id="close"><path d="M18 19a1 1 0 01-.71-.29L12 13.41l-5.29 5.3a1 1 0 01-1.42-1.42l5.3-5.29-5.3-5.29a1 1 0 011.42-1.42l5.29 5.3 5.29-5.3a1 1 0 111.42 1.42L13.41 12l5.3 5.29a1 1 0 010 1.42A1 1 0 0118 19z"/></symbol><symbol id="download"><path d="M18.3 22H5.7a3.09 3.09 0 01-2.2-.91 1 1 0 010-1.42 1 1 0 011.41 0 1.1 1.1 0 00.79.33h12.6a1.1 1.1 0 00.78-.32 1 1 0 011.41 0 1 1 0 010 1.42 3.09 3.09 0 01-2.19.9zM12 16a1.14 1.14 0 01-.32-.07h-.07a1 1 0 01-.26-.18l-4.8-4.59a1 1 0 111.34-1.51l3.11 3V3a1 1 0 012 0v9.66l3.11-3a1 1 0 011.38 1.44l-4.8 4.59a.85.85 0 01-.25.17h-.07A.89.89 0 0112 16z"/></symbol><symbol id="email"><path d="M19.2 20.2H4.8a3.41 3.41 0 01-3.4-3.4V7.2a3.41 3.41 0 013.4-3.4h14.4a3.41 3.41 0 013.4 3.4v9.6a3.41 3.41 0 01-3.4 3.4zM3.4 7.2v9.6a1.4 1.4 0 001.4 1.4h14.4a1.4 1.4 0 001.4-1.4V7.2a1 1 0 01-.23.22l-7.12 4.93a2.2 2.2 0 01-2.5 0L3.63 7.42a1 1 0 01-.23-.22zm1.4-1.4l7.09 4.9a.18.18 0 00.22 0l7.09-4.9z"/></symbol><symbol id="facebook"><path d="M12 2a10 10 0 1010 10A10 10 0 0012 2zm1 17.93V14.5h2a1 1 0 000-2h-2v-2a1.26 1.26 0 011.25-1.25h1.5a1 1 0 000-2h-1.5A3.24 3.24 0 0011 10.5v2H9a1 1 0 000 2h2v5.43a8 8 0 112 0z"/></symbol><symbol id="globe"><path d="M3.6 8.6a1 1 0 000 2v-2zm16.8 2a1 1 0 100-2v2zM3.7 14a1 1 0 100 2v-2zm16.8 2a1 1 0 100-2v2zm.1-4a8.6 8.6 0 01-8.6 8.6v2c5.854 0 10.6-4.746 10.6-10.6h-2zM12 20.6A8.6 8.6 0 013.4 12h-2c0 5.854 4.746 10.6 10.6 10.6v-2zM3.4 12A8.6 8.6 0 0112 3.4v-2C6.146 1.4 1.4 6.146 1.4 12h2zM12 3.4a8.6 8.6 0 018.6 8.6h2c0-5.854-4.746-10.6-10.6-10.6v2zm0 17.2c-.25 0-.565-.111-.94-.474-.38-.366-.767-.946-1.114-1.739C9.253 16.804 8.8 14.547 8.8 12h-2c0 2.755.487 5.298 1.314 7.189.413.944.93 1.77 1.556 2.375.63.61 1.42 1.036 2.33 1.036v-2zM8.8 12c0-2.546.453-4.804 1.146-6.388.347-.793.735-1.372 1.114-1.739.375-.362.69-.473.94-.473v-2c-.91 0-1.7.426-2.33 1.035-.625.605-1.143 1.432-1.556 2.376C7.287 6.7 6.8 9.244 6.8 12h2zM12 22.6c.91 0 1.7-.426 2.33-1.036.625-.604 1.143-1.431 1.556-2.375.827-1.891 1.314-4.434 1.314-7.19h-2c0 2.547-.454 4.805-1.146 6.388-.347.793-.735 1.373-1.114 1.74-.375.362-.691.473-.94.473v2zM17.2 12c0-2.756-.487-5.298-1.314-7.19-.413-.943-.93-1.77-1.556-2.375C13.7 1.826 12.91 1.4 12 1.4v2c.249 0 .565.111.94.473.38.367.767.946 1.114 1.74C14.746 7.196 15.2 9.453 15.2 12h2zM3.6 10.6h16.8v-2H3.6v2zm.1 5.4h16.8v-2H3.7v2z"/></symbol><symbol id="instagram"><path d="M12 16.75A4.75 4.75 0 1116.75 12 4.75 4.75 0 0112 16.75zm0-7.5A2.75 2.75 0 1014.75 12 2.75 2.75 0 0012 9.25z"/><path d="M16.5 22h-9A5.51 5.51 0 012 16.5v-9A5.51 5.51 0 017.5 2h9A5.51 5.51 0 0122 7.5v9a5.51 5.51 0 01-5.5 5.5zm-9-18A3.5 3.5 0 004 7.5v9A3.5 3.5 0 007.5 20h9a3.5 3.5 0 003.5-3.5v-9A3.5 3.5 0 0016.5 4z"/><path d="M16.88 8.25a1.13 1.13 0 10-1.13-1.13 1.12 1.12 0 001.13 1.13z"/></symbol><symbol id="marker"><path d="M12 22.77l-.66-.59c-.32-.29-7.85-7-7.85-12.44a8.51 8.51 0 0117 0c0 5.4-7.52 12.15-7.85 12.44zm0-19.54a6.52 6.52 0 00-6.51 6.51c0 3.38 4.22 8.13 6.51 10.33 2.29-2.2 6.51-7 6.51-10.33A6.52 6.52 0 0012 3.23z"/><path d="M12 12.83a3.4 3.4 0 113.4-3.4 3.4 3.4 0 01-3.4 3.4zM12 8a1.4 1.4 0 101.4 1.4A1.4 1.4 0 0012 8z"/></symbol><symbol id="phone"><path d="M17.5 22h-.28a10.65 10.65 0 01-3.93-1.16 21.24 21.24 0 01-7.1-5.55 19.35 19.35 0 01-3.47-5.81 7.42 7.42 0 01-.57-3.29 3.14 3.14 0 01.92-2l1.56-1.54a1.89 1.89 0 012.78 0c.28.27.56.55.85.85l1.67 1.67a2 2 0 01.66 1.41A2 2 0 019.93 8l-.5.51a1.5 1.5 0 01-.23.21l-.2.14A8.66 8.66 0 0010.37 11a15.61 15.61 0 003.82 3.47c.16.1.32.18.47.26a5.12 5.12 0 01.54.29l.87-.93a1.86 1.86 0 012.76 0l2.53 2.51a2.27 2.27 0 01.19 2.58 1 1 0 01-.2.28c-.43.42-1.19 1.18-1.38 1.4A3.2 3.2 0 0117.5 22zM6 4.08L4.48 5.62a1.12 1.12 0 00-.34.74 5.69 5.69 0 00.46 2.42A17.35 17.35 0 007.73 14a19.34 19.34 0 006.42 5 9.11 9.11 0 003.2 1h.15a1.22 1.22 0 001-.41c.22-.26 1-1 1.32-1.35a1.49 1.49 0 00.06-.25l-2.41-2.4-.88.87a1.94 1.94 0 01-2.3.38l-.11-.06-.37-.2a7.37 7.37 0 01-.68-.37 17.78 17.78 0 01-4.31-3.9 11.14 11.14 0 01-1.64-2.7.24.24 0 010-.09 1.92 1.92 0 01.46-2.06l.1-.09A2 2 0 018 7.14L8.12 7l.4-.4-1.69-1.72C6.56 4.6 6.3 4.34 6 4.1zm14.66 14.69zm0 0zm-.66-.72z"/></symbol><symbol id="quote"><path d="M21.29 19h-2.45a1.74 1.74 0 01-1.71-1.75V12.6a2.13 2.13 0 00-2.23-2h-1.22A1.74 1.74 0 0112 8.85v-2.1A1.74 1.74 0 0113.68 5h1.22a7.87 7.87 0 018.1 7.6v4.65A1.74 1.74 0 0121.29 19zm-2.16-2H21v-4.4A5.87 5.87 0 0014.9 7H14v1.6h.93a4.12 4.12 0 014.23 4zm-8.81 2H7.88a1.74 1.74 0 01-1.72-1.75V12.6a2.13 2.13 0 00-2.22-2H2.71A1.74 1.74 0 011 8.85v-2.1A1.74 1.74 0 012.71 5h1.23A7.87 7.87 0 0112 12.6v4.65A1.74 1.74 0 0110.32 19zm-2.16-2H10v-4.4A5.86 5.86 0 003.94 7H3v1.6h.94a4.11 4.11 0 014.22 4z"/></symbol><symbol id="youtube"><g clip-path="url(#a)"><path d="M10.5 16a1 1 0 01-.47-.12A1 1 0 019.5 15V9a1 1 0 01.5-.88 1 1 0 011 .05l4.5 3a1 1 0 010 1.66l-4.5 3a1 1 0 01-.5.17zm1-5.13v2.26L13.2 12z"/><path d="M11.93 20.5c-.64 0-5.51 0-8.63-1.25a2.56 2.56 0 01-1-.67 2.47 2.47 0 01-.54-1A22.23 22.23 0 011.25 12a23.05 23.05 0 01.53-5.54 2.64 2.64 0 01.55-1 2.41 2.41 0 011-.68C6.58 3.48 11.78 3.5 12 3.5s5.41 0 8.69 1.24a2.48 2.48 0 011 .68 2.61 2.61 0 01.55 1 23.05 23.05 0 01.51 5.58 22.23 22.23 0 01-.54 5.54 2.45 2.45 0 01-1.5 1.71c-3.29 1.27-8.49 1.25-8.71 1.25zm.07-15c-.38 0-5.14 0-8 1.11a.52.52 0 00-.19.14.49.49 0 00-.11.2A21.5 21.5 0 003.25 12a20.4 20.4 0 00.48 5 .42.42 0 00.11.22.53.53 0 00.19.13C7 18.52 11.94 18.5 12 18.5s5.07 0 8-1.11a.64.64 0 00.19-.13.61.61 0 00.11-.21 20.86 20.86 0 00.45-5.05 20.68 20.68 0 00-.47-5 .51.51 0 00-.11-.22.52.52 0 00-.17-.18c-2.93-1.12-7.92-1.1-8-1.1z"/></g></symbol></svg>