<svg xmlns="http://www.w3.org/2000/svg" xmlns:xlink="http://www.w3.org/1999/xlink" style="display:none"><defs><clipPath id="clip0_228_4031"><path fill="#fff" d="M0 0h24v24H0z"/></clipPath><clipPath id="clip0_228_4032"><path fill="#fff" d="M0 0h24v24H0z"/></clipPath><clipPath id="clip0_228_4030"><path fill="#fff" d="M0 0h24v24H0z"/></clipPath></defs><symbol id="arrow-left"><g fill="none"><path d="M10.833 18L5 12m0 0l5.833-6M5 12h14" stroke="#000" stroke-width="2" stroke-linecap="round" stroke-linejoin="round"/></g></symbol><symbol id="arrow-right"><g fill="none"><path d="M13.167 6L19 12m0 0l-5.833 6M19 12H5" stroke="#000" stroke-width="2" stroke-linecap="round" stroke-linejoin="round"/></g></symbol><symbol id="calendar-plus"><g fill="none"><path d="M4.625 8.469h15.75M6.661 2v1.688M18.125 2v1.688m0 0H6.875A3.375 3.375 0 003.5 7.062v11.25a3.375 3.375 0 003.375 3.376h11.25a3.375 3.375 0 003.375-3.375V7.063a3.375 3.375 0 00-3.375-3.375zM9.5 12.5l3 2.5m0 0l3 2.5m-3-2.5l3-2.5m-3 2.5l-3 2.5" stroke="#000" stroke-width="2" stroke-linecap="round" stroke-linejoin="round"/></g></symbol><symbol id="calendar"><g fill="none"><path d="M7.25 17.553v-.084m5.063.084v-.084m0-4.5v-.085m4.5.085v-.085M3.874 8.47h15.75M5.911 2v1.688M17.375 2v1.688m0 0H6.125A3.375 3.375 0 002.75 7.062v11.25a3.375 3.375 0 003.375 3.376h11.25a3.375 3.375 0 003.375-3.375V7.063a3.375 3.375 0 00-3.375-3.375z" stroke="#000" stroke-width="2" stroke-linecap="round" stroke-linejoin="round"/></g></symbol><symbol id="chevron-down"><g fill="none"><path d="M16.8 9.6L12 14.4 7.2 9.6" stroke="#000" stroke-width="2" stroke-linecap="round" stroke-linejoin="round"/></g></symbol><symbol id="chevron-left"><g fill="none"><path d="M14.4 16.8L9.6 12l4.8-4.8" stroke="#000" stroke-width="2" stroke-linecap="round" stroke-linejoin="round"/></g></symbol><symbol id="chevron-right"><g fill="none"><path d="M9.6 7.2l4.8 4.8-4.8 4.8" stroke="#000" stroke-width="2" stroke-linecap="round" stroke-linejoin="round"/></g></symbol><symbol id="chevron-up"><g fill="none"><path d="M7.2 14.4L12 9.6l4.8 4.8" stroke="#000" stroke-width="2" stroke-linecap="round" stroke-linejoin="round"/></g></symbol><symbol id="close"><g fill="none"><path d="M18 6L6 18m12 0L6 6" stroke="#000" stroke-width="2" stroke-linecap="round"/></g></symbol><symbol id="download"><g fill="none"><path d="M4.215 20.423c.394.397.928.62 1.485.62h12.6a2.09 2.09 0 001.485-.62M12 2.957v12m0 0l4.8-4.586M12 14.956l-4.8-4.585" stroke="#292929" stroke-width="2" stroke-linecap="round" stroke-linejoin="round"/></g></symbol><symbol id="email"><g fill="none"><path d="M4.2 6.6l7.117 4.927a1.2 1.2 0 001.366 0L19.8 6.6m-15 12.6h14.4a2.4 2.4 0 002.4-2.4V7.2a2.4 2.4 0 00-2.4-2.4H4.8a2.4 2.4 0 00-2.4 2.4v9.6a2.4 2.4 0 002.4 2.4z" stroke="#000" stroke-width="2" stroke-linecap="round" stroke-linejoin="round"/></g></symbol><symbol id="eye"><g fill="none"><path d="M14.4 12.03c0 1.29-1.075 2.335-2.4 2.335-1.326 0-2.4-1.046-2.4-2.336 0-1.29 1.074-2.335 2.4-2.335 1.325 0 2.4 1.046 2.4 2.335z" stroke="#292929" stroke-width="1.5"/></g></symbol><symbol id="facebook"><g fill="none"><g clip-path="url(#clip0_228_4031)" stroke="#292929" stroke-width="2" stroke-linecap="round" stroke-linejoin="round"><path d="M12 21a9 9 0 100-18 9 9 0 000 18z"/><path d="M15.75 8.25h-1.5A2.25 2.25 0 0012 10.5V21M9 13.5h6"/></g></g></symbol><symbol id="filter"><g fill="none"><path d="M6.6 12h10.8M4.2 7.2h15.6m-9.6 9.6h3.6" stroke="#292929" stroke-width="1.5" stroke-linecap="round" stroke-linejoin="round"/></g></symbol><symbol id="globe"><g fill="none"><path d="M3.6 8.6a1 1 0 000 2v-2zm16.8 2a1 1 0 100-2v2zM3.7 14a1 1 0 100 2v-2zm16.8 2a1 1 0 100-2v2zm.1-4a8.6 8.6 0 01-8.6 8.6v2c5.854 0 10.6-4.746 10.6-10.6h-2zM12 20.6A8.6 8.6 0 013.4 12h-2c0 5.854 4.746 10.6 10.6 10.6v-2zM3.4 12A8.6 8.6 0 0112 3.4v-2C6.146 1.4 1.4 6.146 1.4 12h2zM12 3.4a8.6 8.6 0 018.6 8.6h2c0-5.854-4.746-10.6-10.6-10.6v2zm0 17.2c-.25 0-.565-.111-.94-.474-.38-.366-.767-.946-1.114-1.739C9.253 16.804 8.8 14.547 8.8 12h-2c0 2.755.487 5.298 1.314 7.189.413.944.93 1.77 1.556 2.375.63.61 1.42 1.036 2.33 1.036v-2zM8.8 12c0-2.546.453-4.804 1.146-6.388.347-.793.735-1.372 1.114-1.739.375-.362.69-.473.94-.473v-2c-.91 0-1.7.426-2.33 1.035-.625.605-1.143 1.432-1.556 2.376C7.287 6.7 6.8 9.244 6.8 12h2zM12 22.6c.91 0 1.7-.426 2.33-1.036.625-.604 1.143-1.431 1.556-2.375.827-1.891 1.314-4.434 1.314-7.19h-2c0 2.547-.454 4.805-1.146 6.388-.347.793-.735 1.373-1.114 1.74-.375.362-.691.473-.94.473v2zM17.2 12c0-2.756-.487-5.298-1.314-7.19-.413-.943-.93-1.77-1.556-2.375C13.7 1.826 12.91 1.4 12 1.4v2c.249 0 .565.111.94.473.38.367.767.946 1.114 1.74C14.746 7.196 15.2 9.453 15.2 12h2zM3.6 10.6h16.8v-2H3.6v2zm.1 5.4h16.8v-2H3.7v2z" fill="#000"/></g></symbol><symbol id="instagram"><g fill="none"><g clip-path="url(#clip0_228_4032)"><path d="M12 15.75a3.75 3.75 0 100-7.5 3.75 3.75 0 000 7.5z" stroke="#292929" stroke-width="2" stroke-miterlimit="10"/><path d="M16.5 3h-9A4.5 4.5 0 003 7.5v9A4.5 4.5 0 007.5 21h9a4.5 4.5 0 004.5-4.5v-9A4.5 4.5 0 0016.5 3z" stroke="#292929" stroke-width="2" stroke-linecap="round" stroke-linejoin="round"/><path d="M16.875 8.25a1.125 1.125 0 100-2.25 1.125 1.125 0 000 2.25z" fill="#292929"/></g></g></symbol><symbol id="menu"><g fill="none"><path d="M21.6 19.2H2.4M21.6 12H2.4m19.2-7.2H2.4" stroke="#000" stroke-width="2" stroke-linecap="round"/></g></symbol><symbol id="phone"><g fill="none"><path d="M20.663 18.771s-1.158 1.138-1.442 1.472c-.463.493-1.008.726-1.722.726-.069 0-.142 0-.21-.004-1.361-.087-2.625-.617-3.573-1.07a20.337 20.337 0 01-6.76-5.283c-1.561-1.878-2.606-3.615-3.297-5.48-.426-1.138-.582-2.024-.513-2.86.046-.536.252-.979.632-1.358L5.34 3.355c.224-.21.462-.324.696-.324.288 0 .522.173.668.32l.014.013c.28.26.545.53.824.818.142.147.289.293.436.444l1.25 1.248c.485.484.485.932 0 1.416-.133.133-.261.265-.394.393-.385.393-.083.092-.481.448-.01.01-.018.014-.023.023-.394.393-.32.777-.238 1.038l.014.04c.325.787.783 1.527 1.479 2.41l.005.004c1.264 1.554 2.596 2.765 4.066 3.693.188.119.38.215.564.306.164.082.32.16.453.242.018.01.037.023.055.032a.994.994 0 00.453.114c.38 0 .619-.237.697-.315l.897-.896c.156-.155.403-.342.692-.342.284 0 .517.178.66.333l.008.01 2.524 2.517c.472.467.004 1.431.004 1.431z" stroke="#000" stroke-width="2" stroke-linecap="round" stroke-linejoin="round"/></g></symbol><symbol id="pin"><g fill="none"><path d="M12 21.6s7.513-6.678 7.513-11.687a7.513 7.513 0 10-15.026 0C4.487 14.922 12 21.6 12 21.6z" stroke="#000" stroke-width="2"/><path d="M14.4 9.6a2.4 2.4 0 11-4.8 0 2.4 2.4 0 014.8 0z" stroke="#000" stroke-width="2"/></g></symbol><symbol id="quote"><g fill="none"><path clip-rule="evenodd" d="M2 6.75c0-.414.32-.75.714-.75h1.221c3.92 0 7.097 2.955 7.097 6.6v4.65c0 .414-.32.75-.714.75H7.876c-.395 0-.715-.336-.715-.75V12.6c0-1.657-1.444-3-3.226-3h-1.22C2.32 9.6 2 9.264 2 8.85v-2.1zm10.968 0c0-.414.32-.75.714-.75h1.221C18.823 6 22 8.955 22 12.6v4.65c0 .414-.32.75-.714.75h-2.443c-.394 0-.714-.336-.714-.75V12.6c0-1.657-1.444-3-3.226-3h-1.221c-.395 0-.714-.336-.714-.75v-2.1z" stroke="#090909" stroke-width="2"/></g></symbol><symbol id="youtube"><g fill="none"><g clip-path="url(#clip0_228_4030)" stroke="#292929" stroke-width="2" stroke-linecap="round" stroke-linejoin="round"><path d="M15 12l-4.5-3v6l4.5-3z"/><path d="M2.25 12c0 2.804.288 4.448.507 5.294a1.5 1.5 0 00.9 1.027C6.798 19.533 12 19.5 12 19.5s5.201.032 8.344-1.18a1.5 1.5 0 00.903-1.027c.219-.844.507-2.49.507-5.294 0-2.804-.288-4.448-.507-5.294a1.501 1.501 0 00-.903-1.031C17.2 4.467 12 4.5 12 4.5s-5.201-.033-8.344 1.18a1.5 1.5 0 00-.903 1.03c-.215.84-.503 2.486-.503 5.29z"/></g></g></symbol></svg>