<svg xmlns="http://www.w3.org/2000/svg" width="24" height="24" viewBox="0 0 24 24"><path d="M17.62,22.84H6.38A4.38,4.38,0,0,1,2,18.47V7.22A4.38,4.38,0,0,1,5.16,3V2.16a1,1,0,1,1,2,0v.68h9.46V2.16a1,1,0,0,1,2,0V3A4.37,4.37,0,0,1,22,7.22V18.47A4.38,4.38,0,0,1,17.62,22.84ZM4,9.62v8.85a2.38,2.38,0,0,0,2.38,2.37H17.62A2.38,2.38,0,0,0,20,18.47V9.62H4Zm.12-2H20V7.22a2.39,2.39,0,0,0-2.38-2.38H6.38A2.39,2.39,0,0,0,4,7.22v.41ZM15,18.66a1,1,0,0,1-.64-.24l-2.36-2-2.36,2a1,1,0,0,1-1.41-.12,1,1,0,0,1,.13-1.41l2.08-1.73L8.36,13.42a1,1,0,1,1,1.28-1.53l2.36,2,2.36-2a1,1,0,1,1,1.28,1.53l-2.08,1.74,2.08,1.73a1,1,0,0,1,.13,1.41A1,1,0,0,1,15,18.66Z"/></svg>