<svg xmlns="http://www.w3.org/2000/svg" width="24" height="24" viewBox="0 0 24 24"><path d="M12,16.75A4.75,4.75,0,1,1,16.75,12,4.75,4.75,0,0,1,12,16.75Zm0-7.5A2.75,2.75,0,1,0,14.75,12,2.75,2.75,0,0,0,12,9.25Z"/><path d="M16.5,22h-9A5.51,5.51,0,0,1,2,16.5v-9A5.51,5.51,0,0,1,7.5,2h9A5.51,5.51,0,0,1,22,7.5v9A5.51,5.51,0,0,1,16.5,22ZM7.5,4A3.5,3.5,0,0,0,4,7.5v9A3.5,3.5,0,0,0,7.5,20h9A3.5,3.5,0,0,0,20,16.5v-9A3.5,3.5,0,0,0,16.5,4Z"/><path d="M16.88,8.25a1.13,1.13,0,1,0-1.13-1.13A1.12,1.12,0,0,0,16.88,8.25Z"/></svg>