<svg xmlns="http://www.w3.org/2000/svg" width="24" height="24" viewBox="0 0 24 24"><path d="M17.5,22h-.28a10.65,10.65,0,0,1-3.93-1.16,21.24,21.24,0,0,1-7.1-5.55A19.35,19.35,0,0,1,2.72,9.48a7.42,7.42,0,0,1-.57-3.29,3.14,3.14,0,0,1,.92-2L4.63,2.65a1.89,1.89,0,0,1,2.78,0c.28.27.56.55.85.85L9.93,5.17a2,2,0,0,1,.66,1.41A2,2,0,0,1,9.93,8l-.5.51a1.5,1.5,0,0,1-.23.21L9,8.86H9A8.66,8.66,0,0,0,10.37,11a15.61,15.61,0,0,0,3.82,3.47c.16.1.32.18.47.26a5.12,5.12,0,0,1,.54.29l.87-.93a1.86,1.86,0,0,1,2.76,0h0l2.53,2.51a2.27,2.27,0,0,1,.19,2.58,1,1,0,0,1-.2.28c-.43.42-1.19,1.18-1.38,1.4A3.2,3.2,0,0,1,17.5,22ZM6,4.08H6L4.48,5.62a1.12,1.12,0,0,0-.34.74A5.69,5.69,0,0,0,4.6,8.78,17.35,17.35,0,0,0,7.73,14a19.34,19.34,0,0,0,6.42,5,9.11,9.11,0,0,0,3.2,1h.15a1.22,1.22,0,0,0,1-.41c.22-.26,1-1,1.32-1.35a1.49,1.49,0,0,0,.06-.25l-2.41-2.4-.88.87a1.94,1.94,0,0,1-2.3.38l-.11-.06-.37-.2a7.37,7.37,0,0,1-.68-.37,17.78,17.78,0,0,1-4.31-3.9A11.14,11.14,0,0,1,7.18,9.61a.24.24,0,0,1,0-.09,1.92,1.92,0,0,1,.46-2.06l.1-.09A2,2,0,0,1,8,7.14L8.12,7l.4-.4h0L6.83,4.88C6.56,4.6,6.3,4.34,6,4.1ZM20.66,18.77h0Zm0,0h0ZM20,18.05h0Z"/></svg>