<svg xmlns="http://www.w3.org/2000/svg" xmlns:xlink="http://www.w3.org/1999/xlink" width="24" height="24" viewBox="0 0 24 24"><defs><clipPath id="a"><rect width="24" height="24" fill="none"/></clipPath></defs><g clip-path="url(#a)"><path d="M10.5,16a1,1,0,0,1-.47-.12A1,1,0,0,1,9.5,15V9A1,1,0,0,1,10,8.12a1,1,0,0,1,1,.05l4.5,3a1,1,0,0,1,0,1.66l-4.5,3A1,1,0,0,1,10.5,16Zm1-5.13v2.26L13.2,12Z"/><path d="M11.93,20.5c-.64,0-5.51,0-8.63-1.25a2.56,2.56,0,0,1-1-.67,2.47,2.47,0,0,1-.54-1A22.23,22.23,0,0,1,1.25,12a23.05,23.05,0,0,1,.53-5.54,2.64,2.64,0,0,1,.55-1,2.41,2.41,0,0,1,1-.68C6.58,3.48,11.78,3.5,12,3.5s5.41,0,8.69,1.24a2.48,2.48,0,0,1,1,.68,2.61,2.61,0,0,1,.55,1A23.05,23.05,0,0,1,22.75,12a22.23,22.23,0,0,1-.54,5.54,2.45,2.45,0,0,1-1.5,1.71C17.42,20.52,12.22,20.5,12,20.5ZM12,5.5c-.38,0-5.14,0-8,1.11a.52.52,0,0,0-.19.14.49.49,0,0,0-.11.2A21.5,21.5,0,0,0,3.25,12a20.4,20.4,0,0,0,.48,5,.42.42,0,0,0,.11.22.53.53,0,0,0,.19.13C7,18.52,11.94,18.5,12,18.5s5.07,0,8-1.11a.64.64,0,0,0,.19-.13.61.61,0,0,0,.11-.21A20.86,20.86,0,0,0,20.75,12a20.68,20.68,0,0,0-.47-5,.51.51,0,0,0-.11-.22A.52.52,0,0,0,20,6.6c-2.93-1.12-7.92-1.1-8-1.1Z"/></g></svg>